<svg class="icon" style="width: 1em;height: 1em;vertical-align: middle;fill: currentColor;overflow: hidden;" viewBox="0 0 1024 1024" version="1.1" xmlns="http://www.w3.org/2000/svg" p-id="2581"><path d="M256 384V341.333333a256 256 0 1 1 512 0v42.666667h85.333333a85.333333 85.333333 0 0 1 85.333334 85.333333v341.333334a85.333333 85.333333 0 0 1-85.333334 85.333333H170.666667a85.333333 85.333333 0 0 1-85.333334-85.333333v-341.333334a85.333333 85.333333 0 0 1 85.333334-85.333333h85.333333z m85.333333 0h341.333334V341.333333a170.666667 170.666667 0 1 0-341.333334 0v42.666667z m-170.666666 85.333333v341.333334h682.666666v-341.333334H170.666667z m341.333333 256a85.333333 85.333333 0 1 1 0-170.666666 85.333333 85.333333 0 0 1 0 170.666666z" p-id="2582"></path></svg>