<?xml version="1.0" encoding="utf-8"?>
<!DOCTYPE svg PUBLIC "-//W3C//DTD SVG 20010904//EN" "http://www.w3.org/TR/2001/REC-SVG-20010904/DTD/svg10.dtd">
<svg version="1.0" xmlns="http://www.w3.org/2000/svg" width="256pt" height="256pt" viewBox="0 0 256 256" style="" preserveAspectRatio="xMidYMid meet">
<g fill="#231F20FF" stroke="#231F20FF">
<path d="M 114.564 18.894 C 110.954 24.886 108.000 30.870 108.000 32.191 C 108.000 33.677 109.527 36.085 112.000 38.500 L 116.000 42.406 116.000 61.143 L 116.000 79.879 112.250 80.190 L 108.500 80.500 108.207 88.303 L 107.914 96.106 103.214 95.803 L 98.514 95.500 88.188 77.500 C 78.315 60.289 77.888 59.303 78.447 55.000 C 81.238 33.525 80.014 27.831 70.589 18.421 C 63.592 11.436 57.958 9.000 48.800 9.000 C 43.621 9.000 42.834 9.270 41.875 11.374 C 40.932 13.444 41.589 15.125 46.995 24.492 L 53.197 35.236 51.447 39.118 C 49.778 42.819 49.479 43.000 45.052 43.000 L 40.408 43.000 34.103 31.944 C 28.038 21.310 27.679 20.900 24.701 21.194 C 22.116 21.450 21.183 22.321 19.052 26.473 C 16.843 30.779 16.500 32.725 16.500 40.973 C 16.500 49.065 16.870 51.251 18.953 55.484 C 23.823 65.382 33.010 71.648 45.269 73.434 C 51.495 74.341 54.085 76.725 60.005 87.000 L 64.901 95.500 49.044 95.774 L 33.186 96.049 20.522 112.971 C 10.249 126.698 7.918 130.423 8.178 132.697 L 8.500 135.500 20.240 135.782 L 31.981 136.063 32.240 183.782 L 32.500 231.500 95.054 231.757 L 157.609 232.015 161.507 236.007 C 163.652 238.203 166.314 240.000 167.424 240.000 C 168.534 240.000 171.961 237.508 175.039 234.462 C 182.658 226.922 183.835 227.484 184.212 238.843 L 184.500 247.500 196.000 247.500 L 207.500 247.500 207.788 238.843 C 208.165 227.484 209.342 226.922 216.961 234.462 C 220.039 237.508 223.457 240.000 224.556 240.000 C 227.131 240.000 240.000 227.088 240.000 224.504 C 240.000 223.434 237.508 220.039 234.462 216.961 C 226.922 209.342 227.484 208.165 238.843 207.788 L 247.500 207.500 247.500 196.000 L 247.500 184.500 238.843 184.212 C 227.484 183.835 226.922 182.658 234.462 175.039 C 237.508 171.961 240.000 168.543 240.000 167.444 C 240.000 165.291 227.285 152.000 225.225 152.000 C 224.361 152.000 224.000 149.653 224.000 144.032 L 224.000 136.063 235.750 135.782 L 247.500 135.500 247.822 132.697 C 248.082 130.423 245.752 126.698 235.480 112.974 L 222.818 96.054 208.930 95.777 L 195.043 95.500 201.033 85.270 C 207.335 74.505 208.646 73.355 217.261 71.023 C 226.866 68.423 236.323 59.062 238.998 49.507 C 240.916 42.657 239.866 31.588 236.711 25.392 C 233.329 18.749 225.341 11.606 218.903 9.468 C 211.837 7.121 200.081 7.758 193.805 10.828 C 187.823 13.755 181.769 19.802 178.813 25.805 C 176.883 29.722 176.516 31.991 176.595 39.500 C 176.647 44.450 177.019 50.750 177.422 53.500 L 178.154 58.500 167.371 77.250 L 156.588 96.000 152.336 96.000 L 148.084 96.000 147.792 88.250 L 147.500 80.500 143.750 80.190 L 140.000 79.879 140.000 61.143 L 140.000 42.406 144.000 38.500 C 146.473 36.085 148.000 33.677 148.000 32.191 C 148.000 30.870 145.046 24.886 141.436 18.894 L 134.872 8.000 128.000 8.000 L 121.128 8.000 114.564 18.894 M 82.008 224.000 L 40.000 224.000 40.000 180.013 L 40.000 136.027 73.250 135.763 L 106.500 135.500 115.000 124.259 L 123.500 113.018 123.758 168.509 L 124.017 224.000 82.008 224.000 M 200.000 159.555 L 200.000 167.110 205.529 169.555 C 208.569 170.900 211.849 172.000 212.816 172.000 C 213.784 172.000 216.788 169.754 219.492 167.008 L 224.408 162.017 227.220 164.711 L 230.032 167.405 225.016 172.484 C 222.257 175.277 220.000 178.209 220.000 178.998 C 220.000 180.802 223.025 189.080 224.295 190.750 C 224.904 191.551 227.894 192.000 232.622 192.000 L 240.000 192.000 240.000 196.000 L 240.000 200.000 232.622 200.000 C 227.894 200.000 224.904 200.449 224.295 201.250 C 223.001 202.951 220.000 211.213 220.000 213.071 C 220.000 213.898 222.246 216.788 224.992 219.492 L 229.983 224.408 227.289 227.220 L 224.595 230.032 219.516 225.016 C 216.723 222.257 213.791 220.000 213.002 220.000 C 211.198 220.000 202.920 223.025 201.250 224.295 C 200.449 224.904 200.000 227.894 200.000 232.622 L 200.000 240.000 196.000 240.000 L 192.000 240.000 192.000 232.622 C 192.000 227.894 191.551 224.904 190.750 224.295 C 189.049 223.001 180.787 220.000 178.929 220.000 C 178.102 220.000 175.212 222.246 172.508 224.992 L 167.592 229.983 164.780 227.289 L 161.968 224.595 166.984 219.516 C 169.743 216.723 172.000 213.677 172.000 212.747 C 172.000 211.818 170.900 208.569 169.555 205.529 L 167.110 200.000 159.555 200.000 L 152.000 200.000 152.000 196.000 L 152.000 192.000 158.750 191.985 C 162.463 191.976 166.034 191.630 166.687 191.215 C 168.131 190.296 172.000 181.496 172.000 179.130 C 172.000 178.192 169.754 175.212 167.008 172.508 L 162.017 167.592 164.711 164.780 L 167.405 161.968 172.484 166.984 C 175.277 169.743 178.299 172.000 179.199 172.000 C 181.511 172.000 190.310 168.110 191.215 166.687 C 191.630 166.034 191.976 162.463 191.985 158.750 L 192.000 152.000 196.000 152.000 L 200.000 152.000 200.000 159.555 M 134.000 113.797 C 134.000 114.534 135.166 116.203 139.000 120.955 C 139.825 121.977 141.175 123.807 142.000 125.021 C 142.825 126.236 144.983 129.203 146.796 131.615 L 150.092 136.000 183.046 136.000 L 216.000 136.000 216.000 147.845 C 216.000 158.267 215.769 159.899 214.074 161.433 C 213.015 162.391 211.328 163.018 210.324 162.827 C 208.772 162.530 208.456 161.294 208.204 154.537 C 208.042 150.169 207.424 146.011 206.832 145.297 C 205.326 143.483 186.674 143.483 185.168 145.297 C 184.576 146.011 183.958 150.169 183.796 154.537 C 183.412 164.852 182.063 165.272 174.005 157.587 C 170.784 154.514 167.851 152.000 167.488 152.000 C 166.492 152.000 153.946 164.238 152.855 166.274 C 152.089 167.702 153.001 169.198 157.539 173.955 C 165.275 182.066 164.865 183.411 154.537 183.796 C 150.169 183.958 146.011 184.576 145.297 185.168 C 143.483 186.674 143.483 205.326 145.297 206.832 C 146.011 207.424 150.173 208.042 154.547 208.204 C 161.913 208.478 162.500 208.658 162.500 210.639 C 162.500 211.851 160.200 215.210 157.193 218.389 L 151.887 224.000 141.943 224.000 L 132.000 224.000 132.000 168.500 C 132.000 132.167 132.345 113.000 133.000 113.000 C 133.550 113.000 134.000 113.358 134.000 113.797 M 215.000 17.244 C 218.956 18.241 221.000 19.223 221.000 20.126 C 221.000 20.672 221.450 20.840 222.000 20.500 C 222.550 20.160 223.002 20.246 223.005 20.691 C 223.007 21.136 224.375 22.958 226.045 24.739 C 227.715 26.521 229.664 29.671 230.376 31.739 C 231.548 35.145 231.754 43.186 230.766 47.000 C 229.696 51.133 228.762 53.000 227.766 53.000 C 227.161 53.000 226.946 53.280 227.288 53.622 C 227.630 53.964 226.635 55.519 225.077 57.077 C 223.519 58.635 221.964 59.630 221.622 59.288 C 221.280 58.946 221.000 59.161 221.000 59.766 C 221.000 60.980 218.670 61.949 212.348 63.365 C 208.458 64.237 204.118 66.959 200.021 71.097 C 197.803 73.338 196.190 75.498 196.437 75.898 C 196.684 76.298 195.796 77.893 194.465 79.443 C 193.133 80.993 192.243 82.584 192.487 82.979 C 192.731 83.374 192.073 84.617 191.026 85.742 C 189.978 86.867 189.300 87.967 189.520 88.187 C 189.740 88.406 188.822 89.863 187.481 91.423 C 186.140 92.984 185.285 94.652 185.581 95.130 C 185.876 95.609 181.856 96.000 176.648 96.000 C 166.403 96.000 165.526 95.371 169.424 90.818 C 170.410 89.666 171.310 88.091 171.424 87.318 C 171.537 86.545 172.388 85.027 173.315 83.945 C 174.242 82.863 175.000 81.293 175.000 80.457 C 175.000 79.621 175.672 78.679 176.494 78.364 C 177.316 78.048 177.740 77.388 177.435 76.895 C 177.131 76.403 177.385 76.000 178.000 76.000 C 178.615 76.000 178.882 75.618 178.594 75.151 C 178.305 74.685 178.998 73.306 180.132 72.088 C 181.267 70.870 182.289 69.340 182.402 68.687 C 182.516 68.034 183.451 65.925 184.479 64.000 C 186.412 60.384 187.304 50.000 185.682 50.000 C 185.189 50.000 185.028 49.369 185.324 48.598 C 185.620 47.827 185.556 46.889 185.181 46.515 C 184.153 45.487 184.089 33.000 185.111 33.000 C 185.600 33.000 185.911 32.663 185.802 32.250 C 185.411 30.770 187.157 27.000 188.234 27.000 C 188.839 27.000 189.027 26.694 188.653 26.319 C 187.758 25.425 193.053 19.915 194.153 20.595 C 194.619 20.882 195.000 20.672 195.000 20.126 C 195.000 19.270 198.152 17.698 200.167 17.549 C 200.533 17.522 201.121 17.212 201.473 16.860 C 202.105 16.228 212.092 16.512 215.000 17.244 M 218.979 105.250 C 221.284 107.973 223.572 110.918 225.000 113.000 C 225.825 114.203 227.175 116.003 228.000 117.000 C 228.825 117.997 230.175 119.797 231.000 121.000 C 231.825 122.203 233.326 124.157 234.334 125.343 L 236.169 127.500 195.134 127.761 C 163.086 127.965 153.866 127.746 153.031 126.761 C 150.729 124.044 148.433 121.089 147.000 119.000 C 146.175 117.797 144.825 115.997 144.000 115.000 C 143.175 114.003 141.825 112.203 141.000 111.000 C 140.175 109.797 138.713 107.887 137.750 106.754 C 136.788 105.621 136.000 104.538 136.000 104.347 C 136.000 104.156 154.432 104.000 176.961 104.000 C 208.498 104.000 218.165 104.288 218.979 105.250 M 111.000 116.000 L 101.938 128.000 60.938 128.000 L 19.938 128.000 29.000 116.000 L 38.062 104.000 79.062 104.000 L 120.062 104.000 111.000 116.000 M 60.888 20.442 C 68.027 24.134 72.531 33.461 71.612 42.652 C 71.291 45.868 70.746 51.532 70.402 55.238 L 69.776 61.976 75.569 72.238 C 78.756 77.882 83.081 85.320 85.181 88.768 C 87.282 92.215 89.000 95.252 89.000 95.518 C 89.000 95.783 85.881 96.000 82.068 96.000 C 74.068 96.000 74.750 96.626 66.437 81.644 C 60.492 70.930 56.990 67.641 49.858 66.075 C 37.117 63.277 35.809 62.714 31.091 57.996 C 28.302 55.207 25.924 51.690 25.206 49.292 C 23.819 44.663 23.594 35.369 24.850 34.593 C 25.317 34.304 27.919 37.765 30.633 42.284 L 35.567 50.500 44.016 51.130 C 48.662 51.476 52.942 51.576 53.527 51.351 C 54.741 50.885 62.009 36.604 61.983 34.733 C 61.974 34.055 59.949 30.146 57.483 26.046 C 55.017 21.946 53.000 18.244 53.000 17.820 C 53.000 16.982 56.349 18.095 60.888 20.442 M 134.773 23.779 L 139.181 31.057 135.590 35.032 L 132.000 39.006 132.000 59.503 L 132.000 80.000 128.000 80.000 L 124.000 80.000 124.000 59.503 L 124.000 39.006 120.410 35.032 L 116.820 31.058 120.572 24.779 C 122.635 21.326 124.774 17.916 125.324 17.202 C 127.441 14.455 130.356 16.484 134.773 23.779 M 140.000 92.000 L 140.000 96.000 128.000 96.000 L 116.000 96.000 116.000 92.000 L 116.000 88.000 128.000 88.000 L 140.000 88.000 140.000 92.000 "/></g>
<g fill="#A97C50FF" stroke="#A97C50FF">
<path d="M 113.643 130.809 L 103.785 144.000 71.893 144.000 L 40.000 144.000 40.000 184.000 L 40.000 224.000 82.009 224.000 L 124.018 224.000 123.759 170.809 L 123.500 117.618 113.643 130.809 M 95.500 210.000 C 95.849 211.100 95.849 212.900 95.500 214.000 C 94.903 215.882 93.987 216.000 80.000 216.000 C 66.013 216.000 65.097 215.882 64.500 214.000 C 64.151 212.900 64.151 211.100 64.500 210.000 C 65.097 208.118 66.013 208.000 80.000 208.000 C 93.987 208.000 94.903 208.118 95.500 210.000 M 95.500 198.000 C 95.849 199.100 95.849 200.900 95.500 202.000 C 94.903 203.882 93.987 204.000 80.000 204.000 C 66.013 204.000 65.097 203.882 64.500 202.000 C 64.151 200.900 64.151 199.100 64.500 198.000 C 65.097 196.118 66.013 196.000 80.000 196.000 C 93.987 196.000 94.903 196.118 95.500 198.000 M 95.500 186.000 C 95.849 187.100 95.849 188.900 95.500 190.000 C 94.903 191.882 93.987 192.000 80.000 192.000 C 66.013 192.000 65.097 191.882 64.500 190.000 C 64.151 188.900 64.151 187.100 64.500 186.000 C 65.097 184.118 66.013 184.000 80.000 184.000 C 93.987 184.000 94.903 184.118 95.500 186.000 M 59.500 210.000 C 59.849 211.100 59.849 212.900 59.500 214.000 C 58.980 215.639 57.987 216.000 54.000 216.000 C 50.013 216.000 49.020 215.639 48.500 214.000 C 48.151 212.900 48.151 211.100 48.500 210.000 C 49.020 208.361 50.013 208.000 54.000 208.000 C 57.987 208.000 58.980 208.361 59.500 210.000 M 59.500 198.000 C 59.849 199.100 59.849 200.900 59.500 202.000 C 58.980 203.639 57.987 204.000 54.000 204.000 C 50.013 204.000 49.020 203.639 48.500 202.000 C 48.151 200.900 48.151 199.100 48.500 198.000 C 49.020 196.361 50.013 196.000 54.000 196.000 C 57.987 196.000 58.980 196.361 59.500 198.000 M 59.500 186.000 C 59.849 187.100 59.849 188.900 59.500 190.000 C 58.980 191.639 57.987 192.000 54.000 192.000 C 50.013 192.000 49.020 191.639 48.500 190.000 C 48.151 188.900 48.151 187.100 48.500 186.000 C 49.020 184.361 50.013 184.000 54.000 184.000 C 57.987 184.000 58.980 184.361 59.500 186.000 "/></g>
<g fill="#FF9811FF" stroke="#FF9811FF">
<path d="M 191.790 160.064 L 191.500 168.128 185.147 170.678 L 178.793 173.228 173.391 167.892 L 167.988 162.557 165.273 165.273 L 162.557 167.988 167.892 173.391 L 173.228 178.793 170.678 185.147 L 168.128 191.500 160.064 191.790 L 152.000 192.081 152.000 196.000 L 152.000 199.919 160.064 200.210 L 168.128 200.500 170.678 206.853 L 173.228 213.207 167.892 218.609 L 162.557 224.012 165.273 226.727 L 167.988 229.443 173.391 224.108 L 178.793 218.772 185.147 221.322 L 191.500 223.872 191.790 231.936 L 192.081 240.000 196.000 240.000 L 199.919 240.000 200.210 231.936 L 200.500 223.872 206.853 221.322 L 213.207 218.772 218.609 224.108 L 224.012 229.443 226.727 226.727 L 229.443 224.012 224.108 218.609 L 218.772 213.207 221.322 206.853 L 223.872 200.500 231.936 200.210 L 240.000 199.919 240.000 196.000 L 240.000 192.081 231.936 191.790 L 223.872 191.500 221.322 185.147 L 218.772 178.793 224.108 173.391 L 229.443 167.988 226.727 165.273 L 224.012 162.557 218.609 167.892 L 213.207 173.228 206.853 170.678 L 200.500 168.128 200.210 160.064 L 199.919 152.000 196.000 152.000 L 192.081 152.000 191.790 160.064 M 204.790 177.903 C 211.966 181.583 216.000 188.095 216.000 196.000 C 216.000 207.303 207.303 216.000 196.000 216.000 C 174.587 216.000 168.297 187.560 187.500 177.573 C 191.673 175.402 200.232 175.565 204.790 177.903 "/></g>
<g fill="#FF5023FF" stroke="#FF5023FF">
<path d="M 201.821 17.373 C 189.078 20.864 182.123 33.124 185.471 46.192 C 188.462 57.868 187.830 59.989 174.663 82.500 L 167.059 95.500 175.780 95.776 L 184.500 96.053 191.368 84.045 C 200.844 67.478 202.389 66.018 214.000 62.660 C 224.741 59.553 231.200 51.113 231.200 40.185 C 231.200 37.011 230.548 32.859 229.752 30.957 C 225.234 20.175 213.111 14.279 201.821 17.373 M 214.919 25.117 C 224.033 30.207 224.000 30.152 224.000 40.000 C 224.000 47.024 223.664 48.985 222.250 50.228 C 219.674 52.493 209.556 58.000 207.972 58.000 C 207.220 58.000 203.319 56.120 199.303 53.822 L 192.000 49.643 192.000 40.011 L 192.000 30.378 199.250 26.193 C 203.238 23.891 207.139 22.006 207.919 22.004 C 208.700 22.002 211.850 23.403 214.919 25.117 "/></g>
<g fill="#C49A6CFF" stroke="#C49A6CFF">
<path d="M 132.000 170.821 L 132.000 224.000 141.750 223.883 L 151.500 223.766 157.275 217.529 C 164.975 209.213 164.532 208.165 153.157 207.788 L 144.500 207.500 144.500 196.000 L 144.500 184.500 153.157 184.212 C 164.516 183.835 165.078 182.658 157.538 175.039 C 154.492 171.961 152.000 168.543 152.000 167.444 C 152.000 164.869 164.912 152.000 167.496 152.000 C 168.566 152.000 171.961 154.492 175.039 157.538 C 182.662 165.082 183.766 164.524 184.181 152.917 L 184.500 143.995 168.000 143.959 L 151.500 143.922 141.750 130.782 L 132.000 117.643 132.000 170.821 "/></g>
<g fill="#A97C50FF" stroke="#A97C50FF">
<path d="M 29.622 115.479 C 24.880 121.793 21.000 127.193 21.000 127.479 C 21.000 127.766 39.170 128.000 61.378 128.000 L 101.755 128.000 110.378 116.521 C 115.120 110.207 119.000 104.807 119.000 104.521 C 119.000 104.234 100.830 104.000 78.622 104.000 L 38.245 104.000 29.622 115.479 "/></g>
<g fill="#C49A6CFF" stroke="#C49A6CFF">
<path d="M 139.663 107.824 C 141.224 109.926 145.200 115.315 148.500 119.799 L 154.500 127.950 194.679 127.725 L 234.857 127.500 226.179 115.789 L 217.500 104.077 177.163 104.039 L 136.827 104.000 139.663 107.824 "/></g>
<g fill="#FFCD00FF" stroke="#FFCD00FF">
<path d="M 54.000 18.354 C 54.000 18.522 56.025 22.212 58.500 26.555 C 60.975 30.898 63.000 34.810 63.000 35.248 C 63.000 35.686 61.195 39.634 58.989 44.022 L 54.978 52.000 47.054 52.000 C 42.696 52.000 38.023 51.579 36.670 51.065 C 35.104 50.469 32.635 47.361 29.875 42.510 C 25.685 35.146 25.514 34.984 24.770 37.695 C 23.634 41.834 25.709 50.298 28.960 54.786 C 32.699 59.947 37.533 62.829 44.680 64.158 C 52.665 65.643 57.703 67.859 60.409 71.074 C 61.665 72.567 65.574 78.782 69.096 84.886 L 75.500 95.984 81.750 95.992 C 85.188 95.996 88.000 95.762 88.000 95.471 C 88.000 95.180 84.240 88.489 79.643 80.602 C 68.070 60.741 67.548 58.829 70.529 47.192 C 72.978 37.636 69.929 28.098 62.651 22.547 C 59.828 20.394 54.000 17.569 54.000 18.354 "/></g>
<g fill="#231F20FF" stroke="#231F20FF">
<path d="M 187.246 178.558 C 181.006 181.645 177.224 187.241 176.373 194.648 C 175.905 198.717 176.281 200.386 178.703 204.987 C 181.086 209.514 182.545 210.965 187.045 213.280 C 191.522 215.584 193.370 215.996 197.352 215.579 C 207.372 214.528 214.114 207.757 215.580 197.271 C 216.457 191.003 212.221 182.800 206.321 179.342 C 199.844 175.546 193.836 175.299 187.246 178.558 M 201.038 185.188 C 204.798 186.019 208.356 193.584 207.396 198.704 C 205.735 207.559 195.254 210.476 187.632 204.206 C 185.182 202.190 184.708 200.890 184.614 195.921 C 184.528 191.441 187.196 187.267 191.325 185.420 C 194.150 184.157 196.159 184.109 201.038 185.188 "/></g>
<g fill="#231F20FF" stroke="#231F20FF">
<path d="M 206.000 23.246 C 204.625 23.824 203.000 24.406 202.389 24.540 C 201.777 24.673 200.300 25.619 199.106 26.641 C 197.912 27.664 196.612 28.539 196.218 28.586 C 192.556 29.027 192.160 30.142 192.160 40.000 C 192.160 49.858 192.556 50.973 196.218 51.414 C 196.612 51.461 197.912 52.336 199.106 53.359 C 200.300 54.381 201.877 55.306 202.610 55.413 C 203.342 55.521 204.255 55.922 204.638 56.304 C 205.695 57.361 210.799 57.135 211.500 56.000 C 211.840 55.450 212.785 55.000 213.601 55.000 C 214.416 55.000 216.033 54.116 217.193 53.035 C 218.354 51.954 219.654 51.286 220.083 51.551 C 222.129 52.816 224.000 47.299 224.000 40.000 C 224.000 32.701 222.129 27.184 220.083 28.449 C 219.654 28.714 218.354 28.046 217.193 26.965 C 216.033 25.884 214.599 25.000 214.007 25.000 C 213.414 25.000 211.933 24.369 210.715 23.597 C 209.043 22.538 207.887 22.452 206.000 23.246 M 212.684 34.114 C 215.773 36.023 216.075 36.614 215.802 40.224 C 215.542 43.660 214.974 44.521 211.750 46.360 L 208.000 48.500 204.250 46.360 C 201.031 44.523 200.457 43.658 200.199 40.241 C 199.930 36.686 200.250 36.035 203.199 34.147 C 207.339 31.496 208.443 31.493 212.684 34.114 "/></g>
<g fill="#A97C50FF" stroke="#A97C50FF">
<path d="M 132.032 115.071 C 132.011 116.790 135.235 122.003 141.750 130.782 L 151.500 143.922 168.309 143.961 C 181.457 143.992 184.964 144.272 184.412 145.250 C 183.848 146.250 183.976 146.250 185.053 145.250 C 186.839 143.592 205.544 143.515 206.691 145.160 C 207.305 146.041 207.440 146.041 207.250 145.160 C 207.089 144.415 208.608 144.000 211.500 144.000 L 216.000 144.000 216.000 140.013 L 216.000 136.027 182.771 135.763 L 149.542 135.500 142.743 126.598 C 139.004 121.701 135.071 116.526 134.004 115.098 L 132.063 112.500 132.032 115.071 "/></g>
<g fill="#8B5E3CFF" stroke="#8B5E3CFF">
<path d="M 115.000 124.240 L 106.500 135.500 73.250 135.763 L 40.000 136.027 40.000 140.013 L 40.000 144.000 71.877 144.000 L 103.755 144.000 113.939 130.436 C 120.350 121.897 124.007 116.151 123.811 114.926 C 123.584 113.503 121.211 116.012 115.000 124.240 "/></g>
<g fill="#006DF0FF" stroke="#006DF0FF">
<path d="M 122.122 23.582 L 117.743 31.140 120.872 34.368 L 124.000 37.595 124.000 58.798 L 124.000 80.000 128.000 80.000 L 132.000 80.000 132.000 58.798 L 132.000 37.595 135.128 34.368 L 138.257 31.140 133.878 23.582 C 131.470 19.426 128.825 16.025 128.000 16.025 C 127.175 16.025 124.530 19.426 122.122 23.582 "/></g>
<g fill="#231F20FF" stroke="#231F20FF">
<path d="M 65.226 209.174 C 64.552 209.848 64.000 211.155 64.000 212.078 C 64.000 215.534 66.378 216.066 80.530 215.779 C 92.354 215.539 94.440 215.254 95.388 213.750 C 96.190 212.475 96.190 211.525 95.388 210.250 C 94.439 208.744 92.349 208.462 80.369 208.224 C 70.393 208.026 66.105 208.295 65.226 209.174 "/></g>
<g fill="#231F20FF" stroke="#231F20FF">
<path d="M 65.226 197.174 C 64.552 197.848 64.000 199.155 64.000 200.078 C 64.000 203.534 66.378 204.066 80.530 203.779 C 92.354 203.539 94.440 203.254 95.388 201.750 C 96.190 200.475 96.190 199.525 95.388 198.250 C 94.439 196.744 92.349 196.462 80.369 196.224 C 70.393 196.026 66.105 196.295 65.226 197.174 "/></g>
<g fill="#231F20FF" stroke="#231F20FF">
<path d="M 65.226 185.174 C 64.552 185.848 64.000 187.155 64.000 188.078 C 64.000 191.534 66.378 192.066 80.530 191.779 C 92.354 191.539 94.440 191.254 95.388 189.750 C 96.190 188.475 96.190 187.525 95.388 186.250 C 94.439 184.744 92.349 184.462 80.369 184.224 C 70.393 184.026 66.105 184.295 65.226 185.174 "/></g>
<g fill="#5EAC24FF" stroke="#5EAC24FF">
<path d="M 116.000 92.000 L 116.000 96.000 128.000 96.000 L 140.000 96.000 140.000 92.000 L 140.000 88.000 128.000 88.000 L 116.000 88.000 116.000 92.000 "/></g>
<g fill="#C49A6CFF" stroke="#C49A6CFF">
<path d="M 207.819 152.917 C 208.178 162.976 209.493 164.764 213.655 160.854 C 215.701 158.932 216.000 157.717 216.000 151.326 L 216.000 144.000 211.750 143.998 L 207.500 143.995 207.819 152.917 "/></g>
<g fill="#231F20FF" stroke="#231F20FF">
<path d="M 49.246 209.154 C 45.923 212.477 48.975 216.289 54.579 215.815 C 58.950 215.445 61.095 212.966 59.393 210.250 C 58.058 208.119 51.039 207.361 49.246 209.154 "/></g>
<g fill="#231F20FF" stroke="#231F20FF">
<path d="M 49.246 197.154 C 45.923 200.477 48.975 204.289 54.579 203.815 C 58.950 203.445 61.095 200.966 59.393 198.250 C 58.058 196.119 51.039 195.361 49.246 197.154 "/></g>
<g fill="#231F20FF" stroke="#231F20FF">
<path d="M 49.246 185.154 C 45.923 188.477 48.975 192.289 54.579 191.815 C 58.950 191.445 61.095 188.966 59.393 186.250 C 58.058 184.119 51.039 183.361 49.246 185.154 "/></g>
</svg>
